<svg width="21" height="20" viewBox="0 0 21 20" fill="none" xmlns="http://www.w3.org/2000/svg">
<path fill-rule="evenodd" clip-rule="evenodd" d="M10.5 20C16.0228 20 20.5 15.5228 20.5 10C20.5 4.47715 16.0228 0 10.5 0C4.97715 0 0.5 4.47715 0.5 10C0.5 15.5228 4.97715 20 10.5 20ZM11.25 7C11.25 6.58579 10.9142 6.25 10.5 6.25C10.0858 6.25 9.75 6.58579 9.75 7V9.25H7.5C7.08579 9.25 6.75 9.58579 6.75 10C6.75 10.4142 7.08579 10.75 7.5 10.75H9.75V13C9.75 13.4142 10.0858 13.75 10.5 13.75C10.9142 13.75 11.25 13.4142 11.25 13V10.75H13.5C13.9142 10.75 14.25 10.4142 14.25 10C14.25 9.58579 13.9142 9.25 13.5 9.25H11.25V7Z" fill="#9E005D"/>
</svg>
