<svg width="24" height="25" viewBox="0 0 24 25" fill="none" xmlns="http://www.w3.org/2000/svg">
<path fill-rule="evenodd" clip-rule="evenodd" d="M5.49841 8.09536C5.07724 4.72603 7.70442 1.75 11.1 1.75H12.8029C16.202 1.75 18.832 4.72918 18.4104 8.10208L18.3458 8.61901C18.2208 9.61912 18.5844 10.6183 19.3229 11.3042L19.3668 11.345C20.9801 12.8432 21.2932 15.2799 20.1111 17.1373C19.3385 18.3513 18.0431 19.1235 16.6225 19.2358L16.4312 19.5636C15.4184 21.2998 13.8404 22.25 12.1834 22.25C10.5264 22.25 8.94835 21.2998 7.93556 19.5636L7.74728 19.2409C6.05598 19.1356 4.54092 18.1282 3.79477 16.59L3.69142 16.3769C2.84477 14.6315 3.24086 12.5375 4.66654 11.2219C5.35455 10.5871 5.69388 9.65916 5.57776 8.73021L5.49841 8.09536ZM9.52013 19.25C10.2795 20.2877 11.2623 20.75 12.1834 20.75C13.1045 20.75 14.0873 20.2877 14.8467 19.25H9.52013Z" fill="#666666"/>
</svg>
