<svg width="25" height="24" viewBox="0 0 25 24" fill="none" xmlns="http://www.w3.org/2000/svg">
<g clip-path="url(#clip0_300_15946)">
<path fill-rule="evenodd" clip-rule="evenodd" d="M12.9006 0.25C9.97915 0.25 7.5668 2.42852 7.19913 5.25L6.53655 5.25C5.54087 5.24997 4.71518 5.24994 4.06717 5.34049C3.38593 5.43567 2.77379 5.64585 2.30826 6.16597C1.84273 6.68609 1.70144 7.31769 1.68207 8.00527C1.66364 8.65932 1.75485 9.47995 1.86483 10.4695L2.17272 13.2405C2.40275 15.3109 2.58341 16.937 2.89026 18.2008C3.20478 19.4962 3.67258 20.5072 4.54103 21.2845C5.41031 22.0625 6.47179 22.4154 7.80117 22.5847C9.0991 22.75 10.7472 22.75 12.8471 22.75H12.9541C15.0539 22.75 16.7021 22.75 18.0001 22.5847C19.3294 22.4154 20.3909 22.0625 21.2602 21.2845C22.1286 20.5072 22.5964 19.4962 22.911 18.2008C23.2178 16.937 23.3985 15.311 23.6285 13.2407L23.9364 10.4695C24.0464 9.47996 24.1376 8.65931 24.1192 8.00527C24.0998 7.31769 23.9585 6.68609 23.493 6.16597C23.0274 5.64585 22.4153 5.43567 21.7341 5.34049C21.086 5.24994 20.2604 5.24997 19.2647 5.25L18.6021 5.25C18.2345 2.42858 15.8221 0.25 12.9006 0.25ZM12.9006 1.75C14.9919 1.75 16.7305 3.26063 17.0847 5.25H8.71652C9.07062 3.26068 10.8093 1.75 12.9006 1.75ZM7.43096 9.46967C7.13807 9.17678 6.6632 9.17678 6.3703 9.46967C6.07741 9.76256 6.07741 10.2374 6.3703 10.5303L6.9703 11.1303C10.2455 14.4056 15.5557 14.4056 18.831 11.1303L19.431 10.5303C19.7239 10.2374 19.7239 9.76256 19.431 9.46967C19.1381 9.17678 18.6632 9.17678 18.3703 9.46967L17.7703 10.0697C15.0809 12.7591 10.7204 12.7591 8.03097 10.0697L7.43096 9.46967Z" fill="#666666"/>
</g>
<defs>
<clipPath id="clip0_300_15946">
<rect width="24" height="24" fill="white" transform="translate(0.900391)"/>
</clipPath>
</defs>
</svg>
