<svg width="22" height="21" viewBox="0 0 22 21" fill="none" xmlns="http://www.w3.org/2000/svg">
<path d="M5.59396 2.96556C2.92714 4.90311 1.59374 5.87189 1.07003 7.30291C1.02802 7.41771 0.990231 7.534 0.956744 7.65157C0.539299 9.11711 1.04862 10.6846 2.06725 13.8197C3.08588 16.9547 3.5952 18.5222 4.79434 19.4625C4.89054 19.5379 4.98947 19.6098 5.09093 19.678C5.51758 19.9647 5.98785 20.1546 6.55029 20.2805V15.8197C6.55029 13.1963 8.67694 11.0697 11.3003 11.0697C13.9236 11.0697 16.0503 13.1963 16.0503 15.8197V20.2805C16.6127 20.1546 17.083 19.9647 17.5097 19.678C17.6111 19.6098 17.7101 19.5379 17.8063 19.4625C19.0054 18.5222 19.5147 16.9547 20.5333 13.8197C21.552 10.6846 22.0613 9.11711 21.6439 7.65157C21.6104 7.534 21.5726 7.41771 21.5306 7.30291C21.0069 5.87189 19.6735 4.90312 17.0066 2.96557C14.3398 1.02801 13.0064 0.0592252 11.4836 0.00336104C11.3614 -0.00112035 11.2392 -0.00112035 11.117 0.00336104C9.59418 0.0592251 8.26077 1.02801 5.59396 2.96556Z" fill="#666666"/>
<path fill-rule="evenodd" clip-rule="evenodd" d="M14.5503 20.4732V15.8197C14.5503 14.0247 13.0952 12.5697 11.3003 12.5697C9.50537 12.5697 8.05029 14.0247 8.05029 15.8197V20.4732C8.92325 20.5279 9.97946 20.5279 11.3003 20.5279C12.6211 20.5279 13.6773 20.5279 14.5503 20.4732ZM12.0503 15.8197C12.0503 15.4054 11.7145 15.0697 11.3003 15.0697C10.8861 15.0697 10.5503 15.4054 10.5503 15.8197V17.8197C10.5503 18.2339 10.8861 18.5697 11.3003 18.5697C11.7145 18.5697 12.0503 18.2339 12.0503 17.8197V15.8197Z" fill="#666666"/>
</svg>
