<svg width="19" height="18" viewBox="0 0 19 18" fill="none" xmlns="http://www.w3.org/2000/svg">
<path fill-rule="evenodd" clip-rule="evenodd" d="M1.65609 2.06107C0.701172 3.3754 0.701172 5.25027 0.701172 9C0.701172 12.7497 0.701172 14.6246 1.65609 15.9389C1.96448 16.3634 2.33777 16.7367 2.76225 17.0451C4.07657 18 5.95144 18 9.70117 18C13.4509 18 15.3258 18 16.6401 17.0451C17.0646 16.7367 17.4379 16.3634 17.7463 15.9389C18.7012 14.6246 18.7012 12.7497 18.7012 9C18.7012 5.25027 18.7012 3.3754 17.7463 2.06107C17.4379 1.6366 17.0646 1.26331 16.6401 0.954915C15.3258 0 13.4509 0 9.70117 0C5.95144 0 4.07657 0 2.76225 0.954915C2.33777 1.26331 1.96448 1.6366 1.65609 2.06107ZM6.70117 9C6.70117 9.55228 6.25346 10 5.70117 10C5.14889 10 4.70117 9.55228 4.70117 9C4.70117 8.44772 5.14889 8 5.70117 8C6.25346 8 6.70117 8.44772 6.70117 9ZM10.7012 9C10.7012 9.55228 10.2535 10 9.70117 10C9.14889 10 8.70117 9.55228 8.70117 9C8.70117 8.44772 9.14889 8 9.70117 8C10.2535 8 10.7012 8.44772 10.7012 9ZM13.7012 10C14.2535 10 14.7012 9.55228 14.7012 9C14.7012 8.44772 14.2535 8 13.7012 8C13.1489 8 12.7012 8.44772 12.7012 9C12.7012 9.55228 13.1489 10 13.7012 10Z" fill="#666666"/>
</svg>
