<svg width="20" height="24" viewBox="0 0 20 24" fill="none" xmlns="http://www.w3.org/2000/svg">
<path d="M15.8346 8.4987V6.16537C15.8346 2.8987 13.268 0.332031 10.0013 0.332031C6.73464 0.332031 4.16797 2.8987 4.16797 6.16537V8.4987C2.18464 8.4987 0.667969 10.0154 0.667969 11.9987V20.1654C0.667969 22.1487 2.18464 23.6654 4.16797 23.6654H15.8346C17.818 23.6654 19.3346 22.1487 19.3346 20.1654V11.9987C19.3346 10.0154 17.818 8.4987 15.8346 8.4987ZM6.5013 6.16537C6.5013 4.18203 8.01797 2.66536 10.0013 2.66536C11.9846 2.66536 13.5013 4.18203 13.5013 6.16537V8.4987H6.5013V6.16537Z" fill="#7853F5"/>
</svg>
